<?xml version="1.0" standalone="no"?><svg xmlns:xlink="http://www.w3.org/1999/xlink" xmlns="http://www.w3.org/2000/svg" viewBox="0 0 1000 636.3761597019662" preserveAspectRatio="xMaxYMax slice"><g transform="scale(1.4973556698869794)"><rect x="0" y="0" width="667.8571428571429" height="425" fill="#d62828"/><rect x="0" y="0" width="60.714285714285715" height="60.714285714285715" fill="#d62828"/><rect x="0" y="0" width="30.36" height="30.36" fill="#dd3a20"/><path d="M 0 0 A 30.36 30.36 0 0 0 30.36 30.36 L 30.36 0" fill="#d62828"/><rect x="30.36" y="0" width="30.36" height="30.36" fill="#282e43"/><path d="M 30.36 30.36 A 30.36 30.36 0 0 0 60.72 0 L 30.36 0" fill="#142f46"/><rect x="0" y="30.36" width="30.36" height="30.36" fill="#d52828"/><path d="M 0 60.72 A 30.36 30.36 0 0 1  30.36 30.36 L 30.36 60.72" fill="#f57a02"/><rect x="30.36" y="30.36" width="30.36" height="30.36" fill="#f27106"/><path d="M 30.36 30.36 A 30.36 30.36 0 0 1 60.72 60.72 L 30.36 60.72" fill="#b7292d"/><rect x="60.71" y="0" width="60.71" height="60.71" fill="#342e41"/><polygon points="60.71,0 121.42,0 121.42,60.71" fill="#f57903"/><rect x="121.42857142857143" y="0" width="60.714285714285715" height="60.714285714285715" fill="#d62828"/><rect x="121.43" y="0" width="30.36" height="30.36" fill="#9a2a31"/><polygon points="151.79000000000002,0 151.79000000000002,30.36 121.43,30.36" fill="#c7292a"/><rect x="151.79" y="0" width="30.36" height="30.36" fill="#d72c26"/><polygon points="151.79,0 182.14999999999998,30.36 151.79,30.36" fill="#692c39"/><rect x="121.43" y="30.36" width="30.36" height="30.36" fill="#dc3920"/><polygon points="121.43,30.36 151.79000000000002,30.36 151.79000000000002,60.72" fill="#cd2829"/><rect x="151.79" y="30.36" width="30.36" height="30.36" fill="#db3622"/><polygon points="151.79,30.36 182.14999999999998,30.36 151.79,60.72" fill="#f67d01"/><rect x="182.14285714285714" y="0" width="60.714285714285715" height="60.714285714285715" fill="#d62828"/><rect x="182.14" y="0" width="30.36" height="30.36" fill="#e65115"/><polygon points="212.5,0 212.5,30.36 182.14,30.36" fill="#cf2829"/><rect x="212.5" y="0" width="30.36" height="30.36" fill="#dd3920"/><polygon points="212.5,0 242.86,0 212.5,30.36" fill="#f37505"/><rect x="182.14" y="30.36" width="30.36" height="30.36" fill="#ef690a"/><polygon points="182.14,30.36 212.5,30.36 212.5,60.72" fill="#7f2b35"/><rect x="212.5" y="30.36" width="30.36" height="30.36" fill="#db3522"/><polygon points="212.5,30.36 242.86,60.72 212.5,60.72" fill="#892b34"/><rect x="242.86" y="0" width="60.71" height="60.71" fill="#342e41"/><rect x="242.86" y="0" width="60.71" height="60.71" fill="#d93024"/><rect x="303.57" y="0" width="60.71" height="60.71" fill="#063048"/><rect x="303.57" y="0" width="60.71" height="60.71" fill="#ae292e"/><rect x="364.2857142857143" y="0" width="60.714285714285715" height="60.714285714285715" fill="#d62828"/><rect x="364.29" y="0" width="30.36" height="30.36" fill="#e1451b"/><circle cx="379.47" cy="15.18" r="15.18" fill="#f77e01"/><rect x="394.64" y="0" width="30.36" height="30.36" fill="#812b35"/><rect x="394.64" y="0" width="30.36" height="30.36" fill="#de3c1f"/><rect x="364.29" y="30.36" width="30.36" height="30.36" fill="#412e3f"/><circle cx="379.47" cy="45.54" r="15.18" fill="#102f47"/><rect x="394.64" y="30.36" width="30.36" height="30.36" fill="#d82d26"/><rect x="394.64" y="30.36" width="30.36" height="30.36" fill="#f17007"/><rect x="425" y="0" width="60.71" height="60.71" fill="#dd3b1f"/><polygon points="485.71,0 485.71,60.71 425,60.71" fill="#b9292d"/><rect x="485.7142857142857" y="0" width="60.714285714285715" height="60.714285714285715" fill="#d62828"/><rect x="485.71" y="0" width="30.36" height="30.36" fill="#5e2c3a"/><polygon points="516.0699999999999,0 516.0699999999999,30.36 485.71,30.36" fill="#7f2b35"/><rect x="516.07" y="0" width="30.36" height="30.36" fill="#de3d1e"/><polygon points="516.07,0 546.4300000000001,0 516.07,30.36" fill="#5d2d3b"/><rect x="485.71" y="30.36" width="30.36" height="30.36" fill="#cb282a"/><polygon points="485.71,30.36 516.0699999999999,30.36 516.0699999999999,60.72" fill="#7e2b36"/><rect x="516.07" y="30.36" width="30.36" height="30.36" fill="#942a32"/><polygon points="516.07,30.36 546.4300000000001,60.72 516.07,60.72" fill="#da3223"/><rect x="546.4285714285714" y="0" width="60.714285714285715" height="60.714285714285715" fill="#d62828"/><rect x="546.43" y="0" width="30.36" height="30.36" fill="#ed640c"/><path d="M 546.43 0 A 30.36 30.36 0 0 0 576.79 30.36 L 576.79 0" fill="#c0292b"/><rect x="576.79" y="0" width="30.36" height="30.36" fill="#992a31"/><path d="M 576.79 30.36 A 30.36 30.36 0 0 0 607.15 0 L 576.79 0" fill="#b8292d"/><rect x="546.43" y="30.36" width="30.36" height="30.36" fill="#f27106"/><path d="M 546.43 60.72 A 30.36 30.36 0 0 1  576.79 30.36 L 576.79 60.72" fill="#f27306"/><rect x="576.79" y="30.36" width="30.36" height="30.36" fill="#462d3e"/><path d="M 576.79 30.36 A 30.36 30.36 0 0 1 607.15 60.72 L 576.79 60.72" fill="#e85712"/><rect x="607.1428571428571" y="0" width="60.714285714285715" height="60.714285714285715" fill="#d62828"/><rect x="607.14" y="0" width="30.36" height="30.36" fill="#e65215"/><polygon points="637.5,0 637.5,30.36 607.14,30.36" fill="#ed650c"/><rect x="637.5" y="0" width="30.36" height="30.36" fill="#f77e01"/><polygon points="637.5,0 667.86,0 637.5,30.36" fill="#f57903"/><rect x="607.14" y="30.36" width="30.36" height="30.36" fill="#8a2b34"/><polygon points="607.14,30.36 637.5,30.36 637.5,60.72" fill="#862b34"/><rect x="637.5" y="30.36" width="30.36" height="30.36" fill="#e0421c"/><polygon points="637.5,30.36 667.86,60.72 637.5,60.72" fill="#c5292b"/><rect x="0" y="60.71" width="60.71" height="60.71" fill="#e24919"/><rect x="0" y="60.71" width="60.71" height="60.71" fill="#073048"/><rect x="60.71" y="60.71" width="60.71" height="60.71" fill="#812b35"/><polygon points="60.71,60.71 121.42,60.71 121.42,121.42" fill="#a02a30"/><rect x="121.42857142857143" y="60.714285714285715" width="60.714285714285715" height="60.714285714285715" fill="#d62828"/><rect x="121.43" y="60.71" width="30.36" height="30.36" fill="#e65314"/><path d="M 121.43 60.71 A 30.36 30.36 0 0 0 151.79000000000002 91.07 L 151.79000000000002 60.71" fill="#de3c1f"/><rect x="151.79" y="60.71" width="30.36" height="30.36" fill="#a12a30"/><path d="M 151.79 91.07 A 30.36 30.36 0 0 0 182.14999999999998 60.71 L 151.79 60.71" fill="#5d2d3b"/><rect x="121.43" y="91.07" width="30.36" height="30.36" fill="#f37604"/><path d="M 121.43 121.42999999999999 A 30.36 30.36 0 0 1  151.79000000000002 91.07 L 151.79000000000002 121.42999999999999" fill="#f27305"/><rect x="151.79" y="91.07" width="30.36" height="30.36" fill="#132f46"/><path d="M 151.79 91.07 A 30.36 30.36 0 0 1 182.14999999999998 121.42999999999999 L 151.79 121.42999999999999" fill="#f57903"/><rect x="182.14285714285714" y="60.714285714285715" width="60.714285714285715" height="60.714285714285715" fill="#d62828"/><rect x="182.14" y="60.71" width="30.36" height="30.36" fill="#3f2e3f"/><polygon points="212.5,60.71 212.5,91.07 182.14,91.07" fill="#6d2c38"/><rect x="212.5" y="60.71" width="30.36" height="30.36" fill="#d72a27"/><polygon points="212.5,60.71 242.86,60.71 212.5,91.07" fill="#a72a2f"/><rect x="182.14" y="91.07" width="30.36" height="30.36" fill="#053048"/><polygon points="182.14,91.07 212.5,91.07 212.5,121.42999999999999" fill="#e95911"/><rect x="212.5" y="91.07" width="30.36" height="30.36" fill="#e2471a"/><polygon points="212.5,91.07 242.86,121.42999999999999 212.5,121.42999999999999" fill="#552d3c"/><rect x="242.85714285714286" y="60.714285714285715" width="60.714285714285715" height="60.714285714285715" fill="#d62828"/><rect x="242.86" y="60.71" width="30.36" height="30.36" fill="#7a2b36"/><circle cx="258.04" cy="75.89" r="15.18" fill="#f17007"/><rect x="273.21" y="60.71" width="30.36" height="30.36" fill="#d93124"/><rect x="273.21" y="60.71" width="30.36" height="30.36" fill="#dc3821"/><rect x="242.86" y="91.07" width="30.36" height="30.36" fill="#e1451a"/><circle cx="258.04" cy="106.25" r="15.18" fill="#bb292c"/><rect x="273.21" y="91.07" width="30.36" height="30.36" fill="#3a2e40"/><rect x="273.21" y="91.07" width="30.36" height="30.36" fill="#492d3e"/><rect x="303.57142857142856" y="60.714285714285715" width="60.714285714285715" height="60.714285714285715" fill="#d62828"/><rect x="303.57" y="60.71" width="30.36" height="30.36" fill="#492d3e"/><path d="M 303.57 91.07 A 30.36 30.36 0 0 0 333.93 60.71 L 303.57 60.71" fill="#073048"/><rect x="333.93" y="60.71" width="30.36" height="30.36" fill="#b7292d"/><path d="M 333.93 60.71 A 30.36 30.36 0 0 0 364.29 91.07 L 364.29 60.71" fill="#c2292b"/><rect x="303.57" y="91.07" width="30.36" height="30.36" fill="#c9282a"/><path d="M 303.57 91.07 A 30.36 30.36 0 0 1 333.93 121.42999999999999 L 303.57 121.42999999999999" fill="#ca282a"/><rect x="333.93" y="91.07" width="30.36" height="30.36" fill="#033049"/><path d="M 333.93 121.42999999999999 A 30.36 30.36 0 0 1  364.29 91.07 L 364.29 121.42999999999999" fill="#d93024"/><rect x="364.29" y="60.71" width="60.71" height="60.71" fill="#eb5f0f"/><polygon points="364.29,60.71 425,60.71 425,121.42" fill="#073048"/><rect x="425" y="60.71" width="60.71" height="60.71" fill="#a62a2f"/><path d="M 425 60.71 A 60.71 60.71 0 0 0 485.71 121.42 L 485.71 60.71" fill="#c2292b"/><rect x="485.71" y="60.71" width="60.71" height="60.71" fill="#b2292e"/><rect x="485.71" y="60.71" width="60.71" height="60.71" fill="#2c2e42"/><rect x="546.43" y="60.71" width="60.71" height="60.71" fill="#282e43"/><polygon points="607.14,60.71 607.14,121.42 546.43,121.42" fill="#ef6b09"/><rect x="607.1428571428571" y="60.714285714285715" width="60.714285714285715" height="60.714285714285715" fill="#d62828"/><rect x="607.14" y="60.71" width="30.36" height="30.36" fill="#da3223"/><path d="M 607.14 60.71 A 30.36 30.36 0 0 1 637.5 91.07 L 607.14 91.07" fill="#6c2c38"/><rect x="637.5" y="60.71" width="30.36" height="30.36" fill="#f47703"/><path d="M 637.5 91.07 A 30.36 30.36 0 0 1  667.86 60.71 L 667.86 91.07" fill="#ee660b"/><rect x="607.14" y="91.07" width="30.36" height="30.36" fill="#7c2b36"/><path d="M 607.14 121.42999999999999 A 30.36 30.36 0 0 0 637.5 91.07 L 607.14 91.07" fill="#9a2a31"/><rect x="637.5" y="91.07" width="30.36" height="30.36" fill="#7e2b36"/><path d="M 637.5 91.07 A 30.36 30.36 0 0 0 667.86 121.42999999999999 L 667.86 91.07" fill="#df3f1e"/><rect x="0" y="121.42857142857143" width="60.714285714285715" height="60.714285714285715" fill="#d62828"/><rect x="0" y="121.43" width="30.36" height="30.36" fill="#682c39"/><path d="M 0 151.79000000000002 A 30.36 30.36 0 0 1 30.36 121.43 L 30.36 129.02 A 22.77 22.77 0 0 0 7.59 151.79000000000002" fill="#043048"/><rect x="30.36" y="121.43" width="30.36" height="30.36" fill="#cd2829"/><path d="M 30.36 121.43 A 30.36 30.36 0 0 1 60.72 151.79000000000002 L 53.129999999999995 151.79000000000002 A 22.77 22.77 0 0 0 30.36 129.02" fill="#3d2e40"/><rect x="0" y="151.79" width="30.36" height="30.36" fill="#762c37"/><path d="M 0 151.79 A 30.36 30.36 0 0 0 30.36 182.14999999999998 L 30.36 174.56 A 22.77 22.77 0 0 1 7.59 151.79" fill="#a22a30"/><rect x="30.36" y="151.79" width="30.36" height="30.36" fill="#cc2829"/><path d="M 30.36 182.14999999999998 A 30.36 30.36 0 0 0 60.72 151.79 L 53.129999999999995 151.79 A 22.77 22.77 0 0 1 30.36 174.56" fill="#003049"/><rect x="60.71" y="121.43" width="60.71" height="60.71" fill="#1e2f44"/><polygon points="60.71,121.43 121.42,182.14000000000001 60.71,182.14000000000001" fill="#7b2b36"/><rect x="121.42857142857143" y="121.42857142857143" width="60.714285714285715" height="60.714285714285715" fill="#d62828"/><rect x="121.43" y="121.43" width="30.36" height="30.36" fill="#522d3c"/><polygon points="151.79000000000002,121.43 151.79000000000002,151.79000000000002 121.43,151.79000000000002" fill="#f67d01"/><rect x="151.79" y="121.43" width="30.36" height="30.36" fill="#0e2f47"/><polygon points="151.79,121.43 182.14999999999998,121.43 151.79,151.79000000000002" fill="#af292e"/><rect x="121.43" y="151.79" width="30.36" height="30.36" fill="#b3292d"/><polygon points="121.43,151.79 151.79000000000002,151.79 151.79000000000002,182.14999999999998" fill="#d93124"/><rect x="151.79" y="151.79" width="30.36" height="30.36" fill="#e54f16"/><polygon points="151.79,151.79 182.14999999999998,182.14999999999998 151.79,182.14999999999998" fill="#ed650c"/><rect x="182.14" y="121.43" width="60.71" height="60.71" fill="#f57903"/><path d="M 182.14 121.43 A 60.71 60.71 0 0 1  242.85 182.14000000000001 L 182.14 121.43 A 60.71 60.71 0 0 0 242.85 182.14000000000001" fill="#a72a2f"/><rect x="242.85714285714286" y="121.42857142857143" width="60.714285714285715" height="60.714285714285715" fill="#d62828"/><rect x="242.86" y="121.43" width="30.36" height="30.36" fill="#d72b26"/><circle cx="258.04" cy="136.61" r="15.18" fill="#da3223"/><rect x="273.21" y="121.43" width="30.36" height="30.36" fill="#e75513"/><rect x="273.21" y="121.43" width="30.36" height="30.36" fill="#972a32"/><rect x="242.86" y="151.79" width="30.36" height="30.36" fill="#e1461a"/><circle cx="258.04" cy="166.97" r="15.18" fill="#c5292b"/><rect x="273.21" y="151.79" width="30.36" height="30.36" fill="#ea5c10"/><rect x="273.21" y="151.79" width="30.36" height="30.36" fill="#382e40"/><rect x="303.57" y="121.43" width="60.71" height="60.71" fill="#ee670b"/><path d="M 303.57 121.43 A 60.71 60.71 0 0 1  364.28 182.14000000000001 L 303.57 121.43 A 60.71 60.71 0 0 0 364.28 182.14000000000001" fill="#ef6a0a"/><rect x="364.29" y="121.43" width="60.71" height="60.71" fill="#d82d25"/><path d="M 364.29 182.14000000000001 A 60.71 60.71 0 0 0 425 121.43 L 364.29 121.43" fill="#7d2b36"/><rect x="425" y="121.43" width="60.71" height="60.71" fill="#be292c"/><rect x="425" y="121.43" width="60.71" height="60.71" fill="#f67c01"/><rect x="485.71" y="121.43" width="60.71" height="60.71" fill="#e1461a"/><path d="M 485.71 121.43 A 60.71 60.71 0 0 1 546.42 182.14000000000001 L 485.71 182.14000000000001" fill="#ec620d"/><rect x="546.4285714285714" y="121.42857142857143" width="60.714285714285715" height="60.714285714285715" fill="#d62828"/><rect x="546.43" y="121.43" width="30.36" height="30.36" fill="#083048"/><path d="M 546.43 151.79000000000002 A 30.36 30.36 0 0 1 576.79 121.43 L 576.79 129.02 A 22.77 22.77 0 0 0 554.02 151.79000000000002" fill="#872b34"/><rect x="576.79" y="121.43" width="30.36" height="30.36" fill="#c6292a"/><path d="M 576.79 121.43 A 30.36 30.36 0 0 1 607.15 151.79000000000002 L 599.56 151.79000000000002 A 22.77 22.77 0 0 0 576.79 129.02" fill="#522d3c"/><rect x="546.43" y="151.79" width="30.36" height="30.36" fill="#852b35"/><path d="M 546.43 151.79 A 30.36 30.36 0 0 0 576.79 182.14999999999998 L 576.79 174.56 A 22.77 22.77 0 0 1 554.02 151.79" fill="#e75414"/><rect x="576.79" y="151.79" width="30.36" height="30.36" fill="#ef6a0a"/><path d="M 576.79 182.14999999999998 A 30.36 30.36 0 0 0 607.15 151.79 L 599.56 151.79 A 22.77 22.77 0 0 1 576.79 174.56" fill="#dd3b1f"/><rect x="607.1428571428571" y="121.42857142857143" width="60.714285714285715" height="60.714285714285715" fill="#d62828"/><rect x="607.14" y="121.43" width="30.36" height="30.36" fill="#ec610e"/><path d="M 607.14 151.79000000000002 A 30.36 30.36 0 0 1  637.5 121.43 L 637.5 151.79000000000002" fill="#652c39"/><rect x="637.5" y="121.43" width="30.36" height="30.36" fill="#c0292b"/><path d="M 637.5 121.43 A 30.36 30.36 0 0 1 667.86 151.79000000000002 L 637.5 151.79000000000002" fill="#e85812"/><rect x="607.14" y="151.79" width="30.36" height="30.36" fill="#e54f16"/><path d="M 607.14 151.79 A 30.36 30.36 0 0 0 637.5 182.14999999999998 L 637.5 151.79" fill="#1c2f45"/><rect x="637.5" y="151.79" width="30.36" height="30.36" fill="#d72b26"/><path d="M 637.5 182.14999999999998 A 30.36 30.36 0 0 0 667.86 151.79 L 637.5 151.79" fill="#182f45"/><rect x="0" y="182.14285714285714" width="60.714285714285715" height="60.714285714285715" fill="#d62828"/><rect x="0" y="182.14" width="30.36" height="30.36" fill="#e1441b"/><path d="M 0 182.14 A 30.36 30.36 0 0 1 30.36 212.5 L 0 212.5" fill="#ef690a"/><rect x="30.36" y="182.14" width="30.36" height="30.36" fill="#362e41"/><path d="M 30.36 212.5 A 30.36 30.36 0 0 1  60.72 182.14 L 60.72 212.5" fill="#d93124"/><rect x="0" y="212.5" width="30.36" height="30.36" fill="#de3c1f"/><path d="M 0 242.86 A 30.36 30.36 0 0 0 30.36 212.5 L 0 212.5" fill="#8a2b34"/><rect x="30.36" y="212.5" width="30.36" height="30.36" fill="#da3423"/><path d="M 30.36 212.5 A 30.36 30.36 0 0 0 60.72 242.86 L 60.72 212.5" fill="#f67c01"/><rect x="60.71" y="182.14" width="60.71" height="60.71" fill="#0e2f47"/><rect x="60.71" y="182.14" width="60.71" height="60.71" fill="#f16f07"/><rect x="121.42857142857143" y="182.14285714285714" width="60.714285714285715" height="60.714285714285715" fill="#d62828"/><rect x="121.43" y="182.14" width="30.36" height="30.36" fill="#db3422"/><path d="M 121.43 182.14 A 30.36 30.36 0 0 1 151.79000000000002 212.5 L 121.43 212.5" fill="#ed640c"/><rect x="151.79" y="182.14" width="30.36" height="30.36" fill="#d42828"/><path d="M 151.79 212.5 A 30.36 30.36 0 0 1  182.14999999999998 182.14 L 182.14999999999998 212.5" fill="#ce2829"/><rect x="121.43" y="212.5" width="30.36" height="30.36" fill="#d02829"/><path d="M 121.43 242.86 A 30.36 30.36 0 0 0 151.79000000000002 212.5 L 121.43 212.5" fill="#db3522"/><rect x="151.79" y="212.5" width="30.36" height="30.36" fill="#dd3b1f"/><path d="M 151.79 212.5 A 30.36 30.36 0 0 0 182.14999999999998 242.86 L 182.14999999999998 212.5" fill="#b3292d"/><rect x="182.14" y="182.14" width="60.71" height="60.71" fill="#792b36"/><rect x="182.14" y="182.14" width="60.71" height="60.71" fill="#0a3047"/><rect x="242.86" y="182.14" width="60.71" height="60.71" fill="#f77f00"/><rect x="242.86" y="182.14" width="60.71" height="60.71" fill="#632c3a"/><rect x="303.57" y="182.14" width="60.71" height="60.71" fill="#6b2c38"/><path d="M 303.57 182.14 A 60.71 60.71 0 0 1 364.28 242.85 L 303.57 242.85" fill="#3a2e40"/><rect x="364.29" y="182.14" width="60.71" height="60.71" fill="#e44e16"/><rect x="364.29" y="182.14" width="60.71" height="60.71" fill="#f47703"/><rect x="425" y="182.14285714285714" width="60.714285714285715" height="60.714285714285715" fill="#d62828"/><rect x="425" y="182.14" width="30.36" height="30.36" fill="#6b2c39"/><path d="M 425 182.14 A 30.36 30.36 0 0 0 455.36 212.5 L 455.36 182.14" fill="#ed660c"/><rect x="455.36" y="182.14" width="30.36" height="30.36" fill="#e44d17"/><path d="M 455.36 212.5 A 30.36 30.36 0 0 0 485.72 182.14 L 455.36 182.14" fill="#ed650c"/><rect x="425" y="212.5" width="30.36" height="30.36" fill="#502d3d"/><path d="M 425 242.86 A 30.36 30.36 0 0 1  455.36 212.5 L 455.36 242.86" fill="#1f2f44"/><rect x="455.36" y="212.5" width="30.36" height="30.36" fill="#bb292c"/><path d="M 455.36 212.5 A 30.36 30.36 0 0 1 485.72 242.86 L 455.36 242.86" fill="#de3c1f"/><rect x="485.71" y="182.14" width="60.71" height="60.71" fill="#e2471a"/><rect x="485.71" y="182.14" width="60.71" height="60.71" fill="#f06b09"/><rect x="546.43" y="182.14" width="60.71" height="60.71" fill="#eb5e0f"/><polygon points="546.43,182.14 607.14,242.85 546.43,242.85" fill="#202f44"/><rect x="607.14" y="182.14" width="60.71" height="60.71" fill="#ef690a"/><polygon points="607.14,182.14 667.85,242.85 607.14,242.85" fill="#df3f1d"/><rect x="0" y="242.86" width="60.71" height="60.71" fill="#e55016"/><rect x="0" y="242.86" width="60.71" height="60.71" fill="#e34b18"/><rect x="60.714285714285715" y="242.85714285714286" width="60.714285714285715" height="60.714285714285715" fill="#d62828"/><rect x="60.71" y="242.86" width="30.36" height="30.36" fill="#1c2f45"/><circle cx="75.89" cy="258.04" r="15.18" fill="#f16f07"/><rect x="91.07" y="242.86" width="30.36" height="30.36" fill="#f16f08"/><rect x="91.07" y="242.86" width="30.36" height="30.36" fill="#dc3821"/><rect x="60.71" y="273.21" width="30.36" height="30.36" fill="#7b2b36"/><circle cx="75.89" cy="288.39" r="15.18" fill="#e34b18"/><rect x="91.07" y="273.21" width="30.36" height="30.36" fill="#eb5e0f"/><rect x="91.07" y="273.21" width="30.36" height="30.36" fill="#e44e17"/><rect x="121.42857142857143" y="242.85714285714286" width="60.714285714285715" height="60.714285714285715" fill="#d62828"/><rect x="121.43" y="242.86" width="30.36" height="30.36" fill="#492d3e"/><polygon points="151.79000000000002,242.86 151.79000000000002,273.22 121.43,273.22" fill="#ef6a0a"/><rect x="151.79" y="242.86" width="30.36" height="30.36" fill="#ea5d10"/><polygon points="151.79,242.86 182.14999999999998,273.22 151.79,273.22" fill="#d72a27"/><rect x="121.43" y="273.21" width="30.36" height="30.36" fill="#372e40"/><polygon points="121.43,273.21 151.79000000000002,273.21 121.43,303.57" fill="#6f2c38"/><rect x="151.79" y="273.21" width="30.36" height="30.36" fill="#102f47"/><polygon points="151.79,273.21 182.14999999999998,273.21 182.14999999999998,303.57" fill="#ea5d10"/><rect x="182.14" y="242.86" width="60.71" height="60.71" fill="#6d2c38"/><polygon points="182.14,242.86 242.85,242.86 182.14,303.57" fill="#6f2c38"/><rect x="242.85714285714286" y="242.85714285714286" width="60.714285714285715" height="60.714285714285715" fill="#d62828"/><rect x="242.86" y="242.86" width="30.36" height="30.36" fill="#f47704"/><path d="M 242.86 273.22 A 30.36 30.36 0 0 1 273.22 242.86 L 273.22 250.45000000000002 A 22.77 22.77 0 0 0 250.45000000000002 273.22" fill="#e1451b"/><rect x="273.21" y="242.86" width="30.36" height="30.36" fill="#bc292c"/><path d="M 273.21 242.86 A 30.36 30.36 0 0 1 303.57 273.22 L 295.97999999999996 273.22 A 22.77 22.77 0 0 0 273.21 250.45000000000002" fill="#e44d17"/><rect x="242.86" y="273.21" width="30.36" height="30.36" fill="#662c39"/><path d="M 242.86 273.21 A 30.36 30.36 0 0 0 273.22 303.57 L 273.22 295.97999999999996 A 22.77 22.77 0 0 1 250.45000000000002 273.21" fill="#182f45"/><rect x="273.21" y="273.21" width="30.36" height="30.36" fill="#da3223"/><path d="M 273.21 303.57 A 30.36 30.36 0 0 0 303.57 273.21 L 295.97999999999996 273.21 A 22.77 22.77 0 0 1 273.21 295.97999999999996" fill="#9d2a31"/><rect x="303.57" y="242.86" width="60.71" height="60.71" fill="#f57a02"/><rect x="303.57" y="242.86" width="60.71" height="60.71" fill="#202f44"/><rect x="364.29" y="242.86" width="60.71" height="60.71" fill="#ed630d"/><rect x="364.29" y="242.86" width="60.71" height="60.71" fill="#e1461a"/><rect x="425" y="242.86" width="60.71" height="60.71" fill="#6c2c38"/><polygon points="425,242.86 485.71,303.57 425,303.57" fill="#a22a30"/><rect x="485.71" y="242.86" width="60.71" height="60.71" fill="#bf292c"/><rect x="485.71" y="242.86" width="60.71" height="60.71" fill="#d42828"/><rect x="546.4285714285714" y="242.85714285714286" width="60.714285714285715" height="60.714285714285715" fill="#d62828"/><rect x="546.43" y="242.86" width="30.36" height="30.36" fill="#e65314"/><path d="M 546.43 242.86 A 30.36 30.36 0 0 1 576.79 273.22 L 546.43 273.22" fill="#073048"/><rect x="576.79" y="242.86" width="30.36" height="30.36" fill="#f06c09"/><path d="M 576.79 273.22 A 30.36 30.36 0 0 1  607.15 242.86 L 607.15 273.22" fill="#ef6a09"/><rect x="546.43" y="273.21" width="30.36" height="30.36" fill="#dd3c1f"/><path d="M 546.43 303.57 A 30.36 30.36 0 0 0 576.79 273.21 L 546.43 273.21" fill="#ea5d10"/><rect x="576.79" y="273.21" width="30.36" height="30.36" fill="#4a2d3e"/><path d="M 576.79 273.21 A 30.36 30.36 0 0 0 607.15 303.57 L 607.15 273.21" fill="#572d3c"/><rect x="607.14" y="242.86" width="60.71" height="60.71" fill="#1f2f44"/><path d="M 607.14 303.57 A 60.71 60.71 0 0 0 667.85 242.86 L 607.14 242.86" fill="#e34919"/><rect x="0" y="303.57142857142856" width="60.714285714285715" height="60.714285714285715" fill="#d62828"/><rect x="0" y="303.57" width="30.36" height="30.36" fill="#472d3e"/><path d="M 0 333.93 A 30.36 30.36 0 0 0 30.36 303.57 L 0 303.57" fill="#0d3047"/><rect x="30.36" y="303.57" width="30.36" height="30.36" fill="#e44d17"/><path d="M 30.36 303.57 A 30.36 30.36 0 0 0 60.72 333.93 L 60.72 303.57" fill="#c5292b"/><rect x="0" y="333.93" width="30.36" height="30.36" fill="#a62a2f"/><path d="M 0 333.93 A 30.36 30.36 0 0 1 30.36 364.29 L 0 364.29" fill="#f57903"/><rect x="30.36" y="333.93" width="30.36" height="30.36" fill="#2c2e42"/><path d="M 30.36 364.29 A 30.36 30.36 0 0 1  60.72 333.93 L 60.72 364.29" fill="#422e3f"/><rect x="60.71" y="303.57" width="60.71" height="60.71" fill="#0f2f47"/><rect x="60.71" y="303.57" width="60.71" height="60.71" fill="#f47803"/><rect x="121.43" y="303.57" width="60.71" height="60.71" fill="#102f46"/><polygon points="121.43,303.57 182.14000000000001,364.28 121.43,364.28" fill="#df401d"/><rect x="182.14" y="303.57" width="60.71" height="60.71" fill="#572d3c"/><polygon points="182.14,303.57 242.85,364.28 182.14,364.28" fill="#422e3f"/><rect x="242.86" y="303.57" width="60.71" height="60.71" fill="#d72c26"/><rect x="242.86" y="303.57" width="60.71" height="60.71" fill="#0e2f47"/><rect x="303.57" y="303.57" width="60.71" height="60.71" fill="#352e41"/><polygon points="364.28,303.57 364.28,364.28 303.57,364.28" fill="#7b2b36"/><rect x="364.29" y="303.57" width="60.71" height="60.71" fill="#e85812"/><path d="M 364.29 303.57 A 60.71 60.71 0 0 1  425 364.28 L 364.29 303.57 A 60.71 60.71 0 0 0 425 364.28" fill="#e0411c"/><rect x="425" y="303.57" width="60.71" height="60.71" fill="#9d2a31"/><polygon points="425,303.57 485.71,303.57 485.71,364.28" fill="#482d3e"/><rect x="485.7142857142857" y="303.57142857142856" width="60.714285714285715" height="60.714285714285715" fill="#d62828"/><rect x="485.71" y="303.57" width="30.36" height="30.36" fill="#722c37"/><path d="M 485.71 333.93 A 30.36 30.36 0 0 0 516.0699999999999 303.57 L 485.71 303.57" fill="#e0421c"/><rect x="516.07" y="303.57" width="30.36" height="30.36" fill="#3c2e40"/><path d="M 516.07 303.57 A 30.36 30.36 0 0 0 546.4300000000001 333.93 L 546.4300000000001 303.57" fill="#462d3e"/><rect x="485.71" y="333.93" width="30.36" height="30.36" fill="#922b33"/><path d="M 485.71 333.93 A 30.36 30.36 0 0 1 516.0699999999999 364.29 L 485.71 364.29" fill="#df401d"/><rect x="516.07" y="333.93" width="30.36" height="30.36" fill="#a62a2f"/><path d="M 516.07 364.29 A 30.36 30.36 0 0 1  546.4300000000001 333.93 L 546.4300000000001 364.29" fill="#d82d26"/><rect x="546.4285714285714" y="303.57142857142856" width="60.714285714285715" height="60.714285714285715" fill="#d62828"/><rect x="546.43" y="303.57" width="30.36" height="30.36" fill="#ec630d"/><polygon points="576.79,303.57 576.79,333.93 546.43,333.93" fill="#d72a27"/><rect x="576.79" y="303.57" width="30.36" height="30.36" fill="#0d3047"/><polygon points="576.79,303.57 607.15,303.57 576.79,333.93" fill="#302e42"/><rect x="546.43" y="333.93" width="30.36" height="30.36" fill="#e55015"/><polygon points="546.43,333.93 576.79,333.93 576.79,364.29" fill="#302e42"/><rect x="576.79" y="333.93" width="30.36" height="30.36" fill="#e65314"/><polygon points="576.79,333.93 607.15,364.29 576.79,364.29" fill="#ba292c"/><rect x="607.14" y="303.57" width="60.71" height="60.71" fill="#912b33"/><path d="M 607.14 303.57 A 60.71 60.71 0 0 1  667.85 364.28 L 607.14 303.57 A 60.71 60.71 0 0 0 667.85 364.28" fill="#dc3920"/><rect x="0" y="364.2857142857143" width="60.714285714285715" height="60.714285714285715" fill="#d62828"/><rect x="0" y="364.29" width="30.36" height="30.36" fill="#802b35"/><polygon points="30.36,364.29 30.36,394.65000000000003 0,394.65000000000003" fill="#ee660b"/><rect x="30.36" y="364.29" width="30.36" height="30.36" fill="#de3c1f"/><polygon points="30.36,364.29 60.72,364.29 30.36,394.65000000000003" fill="#a22a30"/><rect x="0" y="394.64" width="30.36" height="30.36" fill="#d72a27"/><polygon points="0,394.64 30.36,394.64 30.36,425" fill="#392e40"/><rect x="30.36" y="394.64" width="30.36" height="30.36" fill="#ad2a2e"/><polygon points="30.36,394.64 60.72,425 30.36,425" fill="#5c2d3b"/><rect x="60.714285714285715" y="364.2857142857143" width="60.714285714285715" height="60.714285714285715" fill="#d62828"/><rect x="60.71" y="364.29" width="30.36" height="30.36" fill="#752c37"/><polygon points="91.07,364.29 91.07,394.65000000000003 60.71,394.65000000000003" fill="#eb600e"/><rect x="91.07" y="364.29" width="30.36" height="30.36" fill="#db3522"/><polygon points="91.07,364.29 121.42999999999999,364.29 91.07,394.65000000000003" fill="#f67c02"/><rect x="60.71" y="394.64" width="30.36" height="30.36" fill="#522d3c"/><polygon points="60.71,394.64 91.07,394.64 91.07,425" fill="#eb5f0f"/><rect x="91.07" y="394.64" width="30.36" height="30.36" fill="#c7292a"/><polygon points="91.07,394.64 121.42999999999999,425 91.07,425" fill="#f67d01"/><rect x="121.42857142857143" y="364.2857142857143" width="60.714285714285715" height="60.714285714285715" fill="#d62828"/><rect x="121.43" y="364.29" width="30.36" height="30.36" fill="#cf2829"/><polygon points="151.79000000000002,364.29 151.79000000000002,394.65000000000003 121.43,394.65000000000003" fill="#ec610e"/><rect x="151.79" y="364.29" width="30.36" height="30.36" fill="#f06d08"/><polygon points="151.79,364.29 182.14999999999998,394.65000000000003 151.79,394.65000000000003" fill="#e55115"/><rect x="121.43" y="394.64" width="30.36" height="30.36" fill="#122f46"/><polygon points="121.43,394.64 151.79000000000002,394.64 151.79000000000002,425" fill="#a52a30"/><rect x="151.79" y="394.64" width="30.36" height="30.36" fill="#083048"/><polygon points="151.79,394.64 182.14999999999998,394.64 151.79,425" fill="#322e41"/><rect x="182.14" y="364.29" width="60.71" height="60.71" fill="#ea5c10"/><rect x="182.14" y="364.29" width="60.71" height="60.71" fill="#f17007"/><rect x="242.85714285714286" y="364.2857142857143" width="60.714285714285715" height="60.714285714285715" fill="#d62828"/><rect x="242.86" y="364.29" width="30.36" height="30.36" fill="#c8292a"/><polygon points="273.22,364.29 273.22,394.65000000000003 242.86,394.65000000000003" fill="#2a2e42"/><rect x="273.21" y="364.29" width="30.36" height="30.36" fill="#de3e1e"/><polygon points="273.21,364.29 303.57,364.29 273.21,394.65000000000003" fill="#ec630d"/><rect x="242.86" y="394.64" width="30.36" height="30.36" fill="#752c37"/><polygon points="242.86,394.64 273.22,394.64 273.22,425" fill="#e1441b"/><rect x="273.21" y="394.64" width="30.36" height="30.36" fill="#e95b11"/><polygon points="273.21,394.64 303.57,425 273.21,425" fill="#cc282a"/><rect x="303.57142857142856" y="364.2857142857143" width="60.714285714285715" height="60.714285714285715" fill="#d62828"/><rect x="303.57" y="364.29" width="30.36" height="30.36" fill="#c8292a"/><path d="M 303.57 364.29 A 30.36 30.36 0 0 1 333.93 394.65000000000003 L 303.57 394.65000000000003" fill="#7c2b36"/><rect x="333.93" y="364.29" width="30.36" height="30.36" fill="#5d2d3b"/><path d="M 333.93 394.65000000000003 A 30.36 30.36 0 0 1  364.29 364.29 L 364.29 394.65000000000003" fill="#db3522"/><rect x="303.57" y="394.64" width="30.36" height="30.36" fill="#292e43"/><path d="M 303.57 425 A 30.36 30.36 0 0 0 333.93 394.64 L 303.57 394.64" fill="#033048"/><rect x="333.93" y="394.64" width="30.36" height="30.36" fill="#ed640c"/><path d="M 333.93 394.64 A 30.36 30.36 0 0 0 364.29 425 L 364.29 394.64" fill="#ec620d"/><rect x="364.2857142857143" y="364.2857142857143" width="60.714285714285715" height="60.714285714285715" fill="#d62828"/><rect x="364.29" y="364.29" width="30.36" height="30.36" fill="#932a32"/><polygon points="394.65000000000003,364.29 394.65000000000003,394.65000000000003 364.29,394.65000000000003" fill="#b0292e"/><rect x="394.64" y="364.29" width="30.36" height="30.36" fill="#912b33"/><polygon points="394.64,364.29 425,394.65000000000003 394.64,394.65000000000003" fill="#f47704"/><rect x="364.29" y="394.64" width="30.36" height="30.36" fill="#d72a27"/><polygon points="364.29,394.64 394.65000000000003,394.64 394.65000000000003,425" fill="#6d2c38"/><rect x="394.64" y="394.64" width="30.36" height="30.36" fill="#832b35"/><polygon points="394.64,394.64 425,394.64 394.64,425" fill="#f47703"/><rect x="425" y="364.2857142857143" width="60.714285714285715" height="60.714285714285715" fill="#d62828"/><rect x="425" y="364.29" width="30.36" height="30.36" fill="#5a2d3b"/><path d="M 425 364.29 A 30.36 30.36 0 0 0 455.36 394.65000000000003 L 455.36 364.29" fill="#4a2d3e"/><rect x="455.36" y="364.29" width="30.36" height="30.36" fill="#f27106"/><path d="M 455.36 394.65000000000003 A 30.36 30.36 0 0 0 485.72 364.29 L 455.36 364.29" fill="#5b2d3b"/><rect x="425" y="394.64" width="30.36" height="30.36" fill="#222f44"/><path d="M 425 425 A 30.36 30.36 0 0 1  455.36 394.64 L 455.36 425" fill="#d82d26"/><rect x="455.36" y="394.64" width="30.36" height="30.36" fill="#053048"/><path d="M 455.36 394.64 A 30.36 30.36 0 0 1 485.72 425 L 455.36 425" fill="#083048"/><rect x="485.7142857142857" y="364.2857142857143" width="60.714285714285715" height="60.714285714285715" fill="#d62828"/><rect x="485.71" y="364.29" width="30.36" height="30.36" fill="#ca282a"/><polygon points="516.0699999999999,364.29 516.0699999999999,394.65000000000003 485.71,394.65000000000003" fill="#e95a11"/><rect x="516.07" y="364.29" width="30.36" height="30.36" fill="#ee670b"/><polygon points="516.07,364.29 546.4300000000001,394.65000000000003 516.07,394.65000000000003" fill="#642c3a"/><rect x="485.71" y="394.64" width="30.36" height="30.36" fill="#872b34"/><polygon points="485.71,394.64 516.0699999999999,394.64 485.71,425" fill="#e2461a"/><rect x="516.07" y="394.64" width="30.36" height="30.36" fill="#9e2a31"/><polygon points="516.07,394.64 546.4300000000001,394.64 546.4300000000001,425" fill="#eb600e"/><rect x="546.43" y="364.29" width="60.71" height="60.71" fill="#342e41"/><polygon points="546.43,364.29 607.14,364.29 546.43,425" fill="#342e41"/><rect x="607.14" y="364.29" width="60.71" height="60.71" fill="#bb292c"/><path d="M 607.14 425 A 60.71 60.71 0 0 1  667.85 364.29 L 667.85 425" fill="#3f2e3f"/></g></svg>